<?xml version="1.0" standalone="no"?><!DOCTYPE svg PUBLIC "-//W3C//DTD SVG 1.1//EN" "http://www.w3.org/Graphics/SVG/1.1/DTD/svg11.dtd"><svg t="1624891840249" class="icon" viewBox="0 0 1058 1024" version="1.1" xmlns="http://www.w3.org/2000/svg" p-id="20134" xmlns:xlink="http://www.w3.org/1999/xlink" width="49.59375" height="48"><defs><style type="text/css"></style></defs><path d="M521.762133 512m-512 0a512 512 0 1 0 1024 0 512 512 0 1 0-1024 0Z" fill="#F9748F" p-id="20135"></path><path d="M719.735467 605.354667a27.5456 27.5456 0 1 0-38.946134 39.0144l20.923734 20.957866h-20.548267a144.9984 144.9984 0 0 1-144.861867-145.408 199.816533 199.816533 0 0 0-199.441066-199.5776H276.002133a27.306667 27.306667 0 0 0 0 54.613334h60.893867a145.134933 145.134933 0 0 1 144.861867 144.9984 199.816533 199.816533 0 0 0 199.441066 199.5776h19.490134l-19.456 18.909866A27.306667 27.306667 0 0 0 700.6208 785.066667a26.897067 26.897067 0 0 0 19.456-7.9872l66.56-66.628267a27.409067 27.409067 0 0 0 0-38.980267l-66.901333-66.116266z m-243.063467 24.6784a27.272533 27.272533 0 0 0-37.888 7.304533 144.657067 144.657067 0 0 1-120.149333 63.965867H276.002133a27.306667 27.306667 0 0 0 0 54.613333h42.666667a199.099733 199.099733 0 0 0 165.649067-87.7568 27.306667 27.306667 0 0 0-7.611734-38.126933z m-198.178133-128.4096l105.403733 105.403733a27.306667 27.306667 0 0 0 38.6048-38.570667l-105.403733-105.437866a27.306667 27.306667 0 0 0-38.570667 38.6048z m38.6048 105.403733l105.403733-105.403733a27.306667 27.306667 0 0 0-38.570667-38.570667l-105.437866 105.3696a27.306667 27.306667 0 0 0 38.6048 38.6048z m226.7136-180.292267c4.539733 3.072 9.966933 4.778667 15.4624 4.778667 9.0112 0 17.408-4.4032 22.528-11.810133a145.066667 145.066667 0 0 1 119.466666-63.010134h3.2768l-23.381333 23.415467a27.306667 27.306667 0 0 0 19.490133 46.626133 26.862933 26.862933 0 0 0 19.456-8.021333l66.56-66.491733a27.409067 27.409067 0 0 0 0-39.0144l-66.901333-66.218667a27.5456 27.5456 0 1 0-38.980267 39.0144l16.657067 16.5888a199.68 199.68 0 0 0-161.041067 86.596267 27.409067 27.409067 0 0 0 7.406934 37.546666z" fill="#FFFFFF" p-id="20136"></path></svg>