<?xml version="1.0" standalone="no"?><!DOCTYPE svg PUBLIC "-//W3C//DTD SVG 1.1//EN" "http://www.w3.org/Graphics/SVG/1.1/DTD/svg11.dtd"><svg t="1624891118929" class="icon" viewBox="0 0 1024 1024" version="1.1" xmlns="http://www.w3.org/2000/svg" p-id="7020" xmlns:xlink="http://www.w3.org/1999/xlink" width="48" height="48"><defs><style type="text/css"></style></defs><path d="M512.00256 512.13056" p-id="7021" fill="#1296db"></path><path d="M524.66688 567.23584" p-id="7022" fill="#1296db"></path><path d="M512.64 64.64 64.64 512.64 64.64 568.96 87.99616 568.96 512.64 144.31488 937.28384 568.96 960.64 568.96 960.64 512.64Z" p-id="7023" fill="#1296db"></path><path d="M832.63744 592.1536c-70.58048 0-128 57.41952-128 128 0 60.90752 42.76224 112.00768 99.84 124.87296L804.47744 960.64l56.32 0 0-115.61344c57.07776-12.86528 99.84-63.96544 99.84-124.87296C960.63744 649.57312 903.21792 592.1536 832.63744 592.1536zM832.63744 791.8336c-39.52512 0-71.68-32.15488-71.68-71.68s32.15488-71.68 71.68-71.68 71.68 32.15488 71.68 71.68S872.16256 791.8336 832.63744 791.8336z" p-id="7024" fill="#1296db"></path><path d="M648.31744 720.1536c0-98.9696 78.4128-179.96032 176.37376-184.13696L512.64 223.96288l-335.36 335.36128 0 22.27456L177.28 960.64l250.88 0 0-281.6 168.96 0 0 281.6 151.03744 0 0-76.69888C688.90624 853.2544 648.31744 791.35744 648.31744 720.1536z" p-id="7025" fill="#1296db"></path></svg>