<?xml version="1.0" standalone="no"?><!DOCTYPE svg PUBLIC "-//W3C//DTD SVG 1.1//EN" "http://www.w3.org/Graphics/SVG/1.1/DTD/svg11.dtd"><svg t="1624890369738" class="icon" viewBox="0 0 1024 1024" version="1.1" xmlns="http://www.w3.org/2000/svg" p-id="3812" xmlns:xlink="http://www.w3.org/1999/xlink" width="16" height="16"><defs><style type="text/css"></style></defs><path d="M865.010526 821.894737c-20.210526 0-36.378947 16.168421-36.378947 36.378947 0 20.210526 16.168421 36.378947 36.378947 36.378948 20.210526 0 36.378947-16.168421 36.378948-36.378948 0-20.210526-16.168421-36.378947-36.378948-36.378947z m136.084211-9.431579l-121.263158-673.684211c-6.736842-43.115789-43.115789-72.757895-87.578947-74.105263H223.663158c-45.810526 1.347368-82.189474 32.336842-87.578947 76.8L13.473684 812.463158c-4.042105 13.473684-8.084211 28.294737-8.08421 44.463158 0 79.494737 64.673684 123.957895 142.821052 123.957895h716.8c79.494737 0 142.821053-44.463158 142.821053-123.957895 1.347368-14.821053-1.347368-29.642105-6.736842-44.463158zM414.989474 400.168421c0-59.284211 32.336842-107.789474 91.621052-107.789474s83.536842 56.589474 83.536842 115.873685c39.073684 0 95.663158 21.557895 95.663158 60.631579s-32.336842 67.368421-71.410526 67.368421H400.168421c-39.073684 0-71.410526-28.294737-71.410526-67.368421 0-40.421053 47.157895-68.715789 86.231579-68.71579z m455.410526 540.294737H126.652632c-39.073684 0-71.410526-47.157895-74.105264-76.8 0-39.073684 24.252632-98.357895 63.326316-98.357895H862.315789c39.073684 0 91.621053 21.557895 90.273685 105.094737-6.736842 51.2-43.115789 70.063158-82.189474 70.063158z" fill="#5FADE0" p-id="3813"></path></svg>