<?xml version="1.0" standalone="no"?><!DOCTYPE svg PUBLIC "-//W3C//DTD SVG 1.1//EN" "http://www.w3.org/Graphics/SVG/1.1/DTD/svg11.dtd"><svg t="1624890917582" class="icon" viewBox="0 0 1024 1024" version="1.1" xmlns="http://www.w3.org/2000/svg" p-id="4923" width="16" height="16" xmlns:xlink="http://www.w3.org/1999/xlink"><defs><style type="text/css"></style></defs><path d="M633.007648 414.423111a166.82618 166.82618 0 0 0 92.799729-27.775919 201.812745 201.812745 0 0 0 68.223801-75.349113c17.02395-31.701241 25.514592-67.413137 25.514592-107.093021 0-38.399888-8.575975-72.959787-25.770591-103.850364A201.044747 201.044747 0 0 0 725.594044 27.010908 169.002174 169.002174 0 0 0 633.007648 0.002987c-33.365236 0-64.298479 9.087973-92.757063 27.306587a199.807417 199.807417 0 0 0-68.266468 73.813118c-16.981284 31.018576-25.514592 65.706475-25.514592 104.106363 0 38.99722 8.533308 74.367783 25.557259 106.069024 16.981284 31.701241 39.679884 56.831834 67.967802 75.349113 28.330584 18.517279 59.306494 27.733252 93.013062 27.733253z m290.132487 439.422719c37.290558 0 63.487815-5.54665 78.506438-16.511952 15.103956-11.007968 22.613267-27.221254 22.613267-48.554525 0-30.71991-9.087973-62.80515-27.26392-96.341053-18.13328-33.535902-44.245204-64.981144-78.293105-94.335724-34.005234-29.397248-75.178447-53.247845-123.434307-71.594458-48.298526-18.346613-102.527701-27.51992-162.730192-27.51992-38.613221 0-74.879782 4.095988-108.757016 12.245298a402.004161 402.004161 0 0 0-92.031732 33.791901 320.937731 320.937731 0 0 1 79.530435 103.594365c19.967942 40.703881 29.951913 84.906419 29.951913 132.650279 0 25.685258-3.114658 49.877188-9.343973 72.533122h391.252192zM238.342132 533.334764c32.426572 0 63.018483 6.357315 91.818399 19.029278a239.529968 239.529968 0 0 1 75.818446 52.522514 247.039279 247.039279 0 0 1 51.071851 77.354441c12.245298 29.183915 18.38928 60.45849 18.389279 93.866393 0 32.981237-6.229315 64.127813-18.645279 93.311728a248.404609 248.404609 0 0 1-127.402295 130.132953 219.946025 219.946025 0 0 1-91.050401 19.242611 224.767344 224.767344 0 0 1-92.031731-18.986611A243.199291 243.199291 0 0 1 70.449289 947.200224a248.404609 248.404609 0 0 1-51.541183-77.311775 236.927309 236.927309 0 0 1-18.645279-93.866392c0-33.365236 6.229315-64.639811 18.645279-93.866393a245.375284 245.375284 0 0 1 51.541183-77.055776 248.916607 248.916607 0 0 1 75.861112-52.522513A222.292685 222.292685 0 0 1 238.342132 533.334764z m-18.090614 93.866393c-8.362642 2.261327-17.663948 4.522653-27.903918 6.741314a1176.871234 1176.871234 0 0 1-81.578429 15.018623l-8.661308 1.194663 3.967988 39.551885c5.930649-0.682665 12.373297-1.578662 19.285277-2.687992l10.623969-1.706662 11.007968-1.706662v26.709256H100.102535v41.215879h40.277216a506.15319 506.15319 0 0 1-47.530528 75.263781l-7.253312 9.215973 24.746595 36.479894c6.399981-7.89331 12.671963-16.639951 18.815945-26.367924l9.087973-14.762623 8.746641-15.317289V925.866953h38.911887v-120.959647c3.32799 4.949319 6.485314 9.813305 9.599972 14.506624 2.047994 3.199991 3.839989 6.143982 5.418651 8.874641l2.133327 4.010655 26.751922-24.021263-7.594645-10.965302a2974.540658 2974.540658 0 0 0-8.746641-12.671963 720.509899 720.509899 0 0 0-13.866626-19.37061l-2.133327-2.943991-11.519967 8.447975v-19.242611H231.08882v-41.215879h-45.226535v-33.791902c7.679978-1.791995 15.103956-3.413323 22.143936-4.906652 4.69332-0.98133 9.087973-1.962661 13.183961-2.986658l5.973316-1.578662-6.954646-39.850551z m55.125173 0.341333c-3.754656 19.797276-7.935977 40.021217-12.543963 60.629156a2392.953021 2392.953021 0 0 1-28.415918 114.047668 1474.129034 1474.129034 0 0 1-12.543963 43.562539c-1.279996 4.735986-2.303993 8.533308-2.986658 11.519967a30.634577 30.634577 0 0 1-2.431993 7.253312 13.013295 13.013295 0 0 1-4.138654 4.693319 41.941211 41.941211 0 0 1-4.522654 2.730659l-3.071991 1.535996 13.525294 40.191882c5.717317-1.365329 11.562633-2.474659 17.493282-3.413323 5.973316-0.853331 11.775966-1.663995 17.493283-2.34666 6.186649-0.853331 13.013295-1.791995 20.47994-2.687992 7.466645-0.895997 15.018623-1.877328 22.613267-2.858658a2419.448943 2419.448943 0 0 1 36.053228-4.522654l6.357315-0.725331 7.551978 25.343926 37.973223-16.213286a1581.819386 1581.819386 0 0 0-11.391967-36.351894 2881.954261 2881.954261 0 0 0-27.221254-79.871767c-3.071991-8.703975-5.973316-17.066617-8.789308-24.917261l-4.095988-11.562633-35.967895 13.141295a1131.3887 1131.3887 0 0 1 13.397294 40.063884c2.517326 7.978643 5.205318 16.298619 8.063977 25.002593 2.858658 8.661308 5.631984 17.27995 8.234643 25.813258-11.434633 1.578662-23.253266 3.157324-35.455897 4.735987-12.202631 1.578662-22.8266 2.730659-31.829241 3.413323 3.925322-12.373297 8.405309-27.733252 13.354628-45.951866a3013.367211 3013.367211 0 0 0 38.954553-163.839522l4.095988-19.967942-40.234549-8.447975z" fill="#FD9603" p-id="4924"></path></svg>