<?xml version="1.0" standalone="no"?><!DOCTYPE svg PUBLIC "-//W3C//DTD SVG 1.1//EN" "http://www.w3.org/Graphics/SVG/1.1/DTD/svg11.dtd"><svg t="1624890975748" class="icon" viewBox="0 0 1024 1024" version="1.1" xmlns="http://www.w3.org/2000/svg" p-id="5873" width="48" height="48" xmlns:xlink="http://www.w3.org/1999/xlink"><defs><style type="text/css"></style></defs><path d="M633.007648 414.423111a166.82618 166.82618 0 0 0 92.799729-27.775919 201.812745 201.812745 0 0 0 68.223801-75.349113c17.02395-31.701241 25.514592-67.413137 25.514592-107.093021 0-38.399888-8.575975-72.959787-25.770591-103.850364A201.044747 201.044747 0 0 0 725.594044 27.010908 169.002174 169.002174 0 0 0 633.007648 0.002987c-33.365236 0-64.298479 9.087973-92.757063 27.306587a199.807417 199.807417 0 0 0-68.266468 73.813118c-16.981284 31.018576-25.514592 65.706475-25.514592 104.106363 0 38.99722 8.533308 74.367783 25.557259 106.069024 16.981284 31.701241 39.679884 56.831834 67.967802 75.349113 28.330584 18.517279 59.306494 27.733252 93.013062 27.733253z m290.132487 439.422719c37.290558 0 63.487815-5.54665 78.506438-16.511952 15.103956-11.007968 22.613267-27.221254 22.613267-48.554525 0-30.71991-9.087973-62.80515-27.26392-96.341053-18.13328-33.535902-44.245204-64.981144-78.293105-94.335724-34.005234-29.397248-75.178447-53.247845-123.434307-71.594458-48.298526-18.346613-102.527701-27.51992-162.730192-27.51992-38.613221 0-74.879782 4.095988-108.757016 12.245298a402.004161 402.004161 0 0 0-92.031732 33.791901 320.937731 320.937731 0 0 1 79.530435 103.594365c19.967942 40.703881 29.951913 84.906419 29.951913 132.650279 0 25.685258-3.114658 49.877188-9.343973 72.533122h391.252192zM238.342132 533.334764c32.426572 0 63.018483 6.357315 91.818399 19.029278a239.529968 239.529968 0 0 1 75.818446 52.522514 247.039279 247.039279 0 0 1 51.071851 77.354441c12.245298 29.183915 18.38928 60.45849 18.389279 93.866393 0 32.981237-6.229315 64.127813-18.645279 93.311728a248.404609 248.404609 0 0 1-127.402295 130.132953 219.946025 219.946025 0 0 1-91.050401 19.242611 224.767344 224.767344 0 0 1-92.031731-18.986611A243.199291 243.199291 0 0 1 70.449289 947.200224a248.404609 248.404609 0 0 1-51.541183-77.311775 236.927309 236.927309 0 0 1-18.645279-93.866392c0-33.365236 6.229315-64.639811 18.645279-93.866393a245.375284 245.375284 0 0 1 51.541183-77.055776 248.916607 248.916607 0 0 1 75.861112-52.522513A222.292685 222.292685 0 0 1 238.342132 533.334764z m-22.527934 191.274109a829.864246 829.864246 0 0 1-37.333224 72.19179c-6.442648 11.050634-12.629296 21.034605-18.645279 29.951912-5.973316 8.959974-11.221301 16.085286-15.786621 21.375938a40.703881 40.703881 0 0 1-10.794635 9.087973 46.079866 46.079866 0 0 1-7.679978 3.242658l-4.394654 1.279996 12.373298 43.349207c3.071991-0.682665 6.399981-1.279996 9.98397-1.834661a282.45251 282.45251 0 0 1 11.263968-1.493329 3487.563161 3487.563161 0 0 1 73.941117-6.442648l39.167886-2.986658c12.927962-0.98133 24.831928-2.047994 35.711896-3.157324 2.858658 5.119985 5.54665 9.941304 8.02131 14.591957 2.474659 4.607987 4.821319 9.173307 6.997313 13.56796l33.962567-25.514592a971.261167 971.261167 0 0 0-31.658574-55.125172c-6.101316-9.813305-12.373297-19.583943-18.773279-29.269248-4.266654-6.485314-8.490642-12.629296-12.629296-18.431947l-6.143982-8.405308-33.279903 20.522606c4.991985 7.082646 10.23997 14.93329 15.786621 23.679931 5.54665 8.703975 11.178634 17.706615 16.853284 26.965255-16.554618 1.578662-33.279903 2.943991-50.133187 4.138655-16.853284 1.23733-31.999907 2.261327-45.525201 3.157324a252.58593 252.58593 0 0 0 15.530621-21.333271c5.759983-8.746641 11.605299-18.38928 17.621282-29.013249 5.973316-10.581302 11.946632-21.759937 17.919948-33.407903l8.703975-17.493282 8.106643-17.27995-39.167886-15.91462z m-32.938571-101.631703a338.985678 338.985678 0 0 1-39.85055 72.362455c-13.226628 18.431946-28.117251 35.839895-44.67187 52.266514L85.595911 759.723437l29.695913 31.786574a539.390427 539.390427 0 0 0 61.695821-73.813118c14.293292-20.693273 26.666589-42.111877 37.205224-64.341145l7.509312-16.810618-38.826554-13.56796zM283.995332 618.667849l-35.882562 15.231955c6.741314 16.127953 13.69596 31.445242 20.906606 46.0372 7.167979 14.549291 15.103956 28.373251 23.807931 41.386545 8.703975 13.013295 18.346613 25.17326 29.013248 36.394561 10.666636 11.263967 22.869267 21.631937 36.607894 31.146576L384.261707 754.091454a296.959134 296.959134 0 0 1-32.810571-26.666589 225.578009 225.578009 0 0 1-26.581256-30.122579 267.092554 267.092554 0 0 1-22.058602-35.583896 357.630957 357.630957 0 0 1-14.293292-31.402575l-4.479987-11.647966z" fill="#34C759" p-id="5874"></path></svg>