<?xml version="1.0" standalone="no"?><!DOCTYPE svg PUBLIC "-//W3C//DTD SVG 1.1//EN" "http://www.w3.org/Graphics/SVG/1.1/DTD/svg11.dtd"><svg t="1624891655693" class="icon" viewBox="0 0 1024 1024" version="1.1" xmlns="http://www.w3.org/2000/svg" p-id="14668" xmlns:xlink="http://www.w3.org/1999/xlink" width="48" height="48"><defs><style type="text/css"></style></defs><path d="M734.362 403.456a249.856 249.856 0 0 0-499.661 0 242.074 242.074 0 0 0 127.693 216.422 336.18 336.18 0 0 0-208.282 250.01 28.006 28.006 0 0 0 22.17 33.178h5.53a27.034 27.034 0 0 0 27.647-22.119 281.958 281.958 0 0 1 272.077-227.686h5.53a251.853 251.853 0 0 0 247.296-249.856v0.102z m-444.16 0a194.304 194.304 0 0 1 388.659 0 196.096 196.096 0 0 1-191.488 194.253h-8.397a197.427 197.427 0 0 1-188.723-194.253z m385.894 249.856a26.163 26.163 0 0 0 27.648 27.648h138.803a27.648 27.648 0 1 0 0-55.398H703.744a27.75 27.75 0 0 0-27.648 27.648v0.05z m166.554 80.384H620.544a27.75 27.75 0 1 0 0 55.552H842.65a27.75 27.75 0 0 0 0-55.552z m0 111.104H623.309a27.75 27.75 0 0 0 0 55.5h219.29a26.163 26.163 0 0 0 27.647-27.647c0-15.36-12.288-27.802-27.648-27.853z" fill="#d4237a" p-id="14669"></path></svg>