<?xml version="1.0" standalone="no"?><!DOCTYPE svg PUBLIC "-//W3C//DTD SVG 1.1//EN" "http://www.w3.org/Graphics/SVG/1.1/DTD/svg11.dtd"><svg t="1624891699145" class="icon" viewBox="0 0 1463 1024" version="1.1" xmlns="http://www.w3.org/2000/svg" p-id="15523" xmlns:xlink="http://www.w3.org/1999/xlink" width="68.578125" height="48"><defs><style type="text/css"></style></defs><path d="M219.372136 438.824476a140.528542 140.528542 0 0 0 102.815357-43.429889 140.528542 140.528542 0 0 0 43.42989-102.815357 140.528542 140.528542 0 0 0-43.42989-102.815357 140.528542 140.528542 0 0 0-102.815357-43.42989 140.528542 140.528542 0 0 0-102.815357 43.42989 140.528542 140.528542 0 0 0-43.429889 102.815357 140.528542 140.528542 0 0 0 43.429889 102.815357 140.528542 140.528542 0 0 0 102.815357 43.429889z m1023.887373 0a140.528542 140.528542 0 0 0 102.815357-43.429889 140.528542 140.528542 0 0 0 43.429889-102.815357 140.528542 140.528542 0 0 0-43.429889-102.815357 140.528542 140.528542 0 0 0-102.815357-43.42989 140.528542 140.528542 0 0 0-102.815357 43.42989 140.528542 140.528542 0 0 0-43.42989 102.815357 140.528542 140.528542 0 0 0 43.42989 102.815357 140.528542 140.528542 0 0 0 102.815357 43.429889z m73.122623 73.122623h-146.245247a140.528542 140.528542 0 0 0-102.815357 43.42989 320.818043 320.818043 0 0 1 114.248766 102.815357 338.565424 338.565424 0 0 1 57.167045 146.245246h150.85274a70.306933 70.306933 0 0 0 51.194369-21.672283 70.306933 70.306933 0 0 0 21.672282-51.194368v-73.122624a140.528542 140.528542 0 0 0-43.429889-102.815357A140.528542 140.528542 0 0 0 1316.467456 511.947099zM731.315822 511.947099a251.876294 251.876294 0 0 0 127.985922-34.129579 251.449674 251.449674 0 0 0 93.856342-93.856342 251.876294 251.876294 0 0 0 34.129579-127.985922 251.876294 251.876294 0 0 0-34.129579-127.985921 251.449674 251.449674 0 0 0-93.856342-93.856343 251.876294 251.876294 0 0 0-127.985922-34.129579 251.876294 251.876294 0 0 0-127.985921 34.129579 251.449674 251.449674 0 0 0-93.856343 93.856343 251.876294 251.876294 0 0 0-34.129579 127.985921 251.876294 251.876294 0 0 0 34.129579 127.985922 251.449674 251.449674 0 0 0 93.856343 93.856342 251.876294 251.876294 0 0 0 127.985921 34.129579z m175.937981 73.122623h-18.174001a366.892975 366.892975 0 0 1-157.678656 36.603974 366.892975 366.892975 0 0 1-157.678655-36.603974h-18.344649a255.971843 255.971843 0 0 0-131.398879 35.409439 263.565674 263.565674 0 0 0-95.989441 96.074765 255.971843 255.971843 0 0 0-35.409439 131.398879v66.296708a105.801695 105.801695 0 0 0 31.996481 77.730116 105.801695 105.801695 0 0 0 77.730116 31.99648h658.188933a105.801695 105.801695 0 0 0 77.730116-31.99648 105.801695 105.801695 0 0 0 31.99648-77.730116v-66.296708a255.971843 255.971843 0 0 0-35.409438-131.398879 263.565674 263.565674 0 0 0-96.074765-95.989441 255.971843 255.971843 0 0 0-131.39888-35.409439z m-511.943687-29.692733A140.528542 140.528542 0 0 0 292.494759 511.947099H146.249513a140.528542 140.528542 0 0 0-102.815357 43.42989A140.528542 140.528542 0 0 0 0.004267 658.277669v73.122624a70.306933 70.306933 0 0 0 21.672282 51.194368 70.306933 70.306933 0 0 0 51.194369 21.672283h151.108711a338.565424 338.565424 0 0 1 57.167045-146.245246 320.818043 320.818043 0 0 1 114.248766-102.644709z" p-id="15524" fill="#d4237a"></path></svg>