<?xml version="1.0" standalone="no"?><!DOCTYPE svg PUBLIC "-//W3C//DTD SVG 1.1//EN" "http://www.w3.org/Graphics/SVG/1.1/DTD/svg11.dtd"><svg t="1625378372580" class="icon" viewBox="0 0 1024 1024" version="1.1" xmlns="http://www.w3.org/2000/svg" p-id="4154" width="20" height="20" xmlns:xlink="http://www.w3.org/1999/xlink"><defs><style type="text/css"></style></defs><path d="M512 0c283.306667 0 512 228.693333 512 512S795.306667 1024 512 1024 0 795.306667 0 512 228.693333 0 512 0z" fill="#D0EDF0" p-id="4155"></path><path d="M778.922667 362.666667L789.333333 938.666667l-242.666666-72.874667-13.866667-100.629333L778.944 362.666667z m-523.456 0L234.666667 893.568l253.056-24.298667-10.389334-100.629333L255.466667 362.666667z" fill="#312B28" p-id="4156"></path><path d="M514.026667 1024c117.504 0 228.117333-41.898667 317.973333-108.224-10.368-17.450667-34.56-38.4-69.12-55.850667C707.584 832 645.333333 832 645.333333 832l-134.784 41.898667L406.890667 832s-69.12 3.498667-120.96 34.901333c-34.56 20.949333-62.229333 45.397333-72.597334 59.349334C296.277333 985.6 403.413333 1024 514.026667 1024z" fill="#F7F9FB" p-id="4157"></path><path d="M469.76 746.666667h110.421333v76.394666l123.818667 20.842667S627.029333 896 523.306667 896C432.917333 896 362.666667 840.426667 362.666667 840.426667l107.093333-20.821334V746.666667z" fill="#EFD0AF" p-id="4158"></path><path d="M302.122667 324.48L298.666667 435.669333s6.912 87.573333 17.258666 148.202667c6.890667 40.426667 24.149333 74.112 55.210667 111.168C412.544 748.906667 491.946667 789.333333 529.877333 789.333333c41.408 0 106.986667-33.685333 148.394667-84.202666 24.149333-30.314667 62.122667-80.853333 69.013333-117.909334 13.802667-77.461333 20.714667-208.853333 20.714667-208.853333L692.074667 277.333333l-389.973334 47.146667z" fill="#F4DBBA" p-id="4159"></path><path d="M508.8 149.333333c-204.309333 0-245.866667 173.44-245.866667 225.493334C262.933333 458.048 256 576 256 576s20.778667-79.786667 20.778667-76.309333c3.456 13.866667 3.456 48.554667 3.456 48.554666 3.477333 0 34.645333 17.344 34.645333 17.344l-3.477333-128.341333s58.88 3.477333 110.826666-20.821333c41.557333-20.8 48.490667-100.586667 48.490667-100.586667s24.234667 90.197333 86.570667 104.064c58.88 13.866667 159.317333-13.866667 166.250666 27.733333 13.845333 58.986667 6.912 86.741333 3.456 124.885334l24.234667-13.866667s3.477333-34.688 6.933333-48.554667c3.456-20.821333 13.866667 55.488 13.866667 52.032 0-17.344 17.301333-97.130667 17.301333-183.850666C789.333333 270.762667 688.896 149.333333 508.8 149.333333z" fill="#312B28" p-id="4160"></path><path d="M297.344 487.253333s-10.304-23.893333-30.912-10.24c-10.282667 6.826667-13.717333 40.96-6.848 58.026667 6.848 23.893333 17.152 30.72 24.021333 37.546667 6.869333 3.413333 20.608 3.413333 20.608 3.413333l-6.869333-88.746667z m439.616-17.066666s10.304-3.413333 20.608 3.413333c10.282667 6.826667 13.717333 40.96 6.848 58.026667-6.848 23.893333-17.152 30.72-24.021333 37.546666-6.869333 6.826667-20.608 6.826667-20.608 6.826667l17.173333-105.813333z" fill="#F4DBBA" p-id="4161"></path><path d="M523.904 682.666667c-17.664 0-35.328-4.885333-49.472-14.634667 0 0 0-2.432-3.52-2.432-3.541333 0 0-2.432 0-2.432 3.52-2.453333 7.04-2.453333 7.04 0 24.746667 14.613333 63.594667 14.613333 88.32 0h3.541333s3.541333 0 3.541334 2.432c3.52 2.432 3.52 4.885333 0 4.885333-10.602667 7.296-28.266667 12.181333-49.472 12.181334z" fill="#E2C6A3" p-id="4162"></path></svg>