<?xml version="1.0" standalone="no"?><!DOCTYPE svg PUBLIC "-//W3C//DTD SVG 1.1//EN" "http://www.w3.org/Graphics/SVG/1.1/DTD/svg11.dtd"><svg t="1624028536249" class="icon" viewBox="0 0 1024 1024" version="1.1" xmlns="http://www.w3.org/2000/svg" p-id="16171" xmlns:xlink="http://www.w3.org/1999/xlink" width="24" height="24"><defs><style type="text/css"></style></defs><path d="M934.464 842.304H226.944a42.56 42.56 0 0 1-32.768-14.08c-7.808-9.344-14.08-20.288-14.08-32.768V89.6c0-26.56 20.288-46.848 46.848-46.848s46.848 20.288 46.848 46.848v659.072h659.136c26.56 0 46.848 20.288 46.848 46.848a45.696 45.696 0 0 1-45.312 46.848z" fill="#777777" p-id="16172"></path><path d="M795.52 981.312a46.016 46.016 0 0 1-46.912-46.848V275.392H89.6a46.016 46.016 0 0 1-46.848-46.848c0-26.56 20.288-46.912 46.848-46.912h705.92c12.48 0 24.96 4.736 32.832 14.08 9.344 9.408 14.08 20.288 14.08 32.832V934.4a46.08 46.08 0 0 1-46.912 46.848z" fill="#777777" p-id="16173"></path></svg>