<?xml version="1.0" standalone="no"?><!DOCTYPE svg PUBLIC "-//W3C//DTD SVG 1.1//EN" "http://www.w3.org/Graphics/SVG/1.1/DTD/svg11.dtd"><svg t="1621474713128" class="icon" viewBox="0 0 1024 1024" version="1.1" xmlns="http://www.w3.org/2000/svg" p-id="3437" xmlns:xlink="http://www.w3.org/1999/xlink" width="48" height="48"><defs><style type="text/css"></style></defs><path d="M693.333333 661.333333h170.666667a32 32 0 0 1 4.352 63.701334L864 725.333333H725.333333v138.666667a32 32 0 0 1-63.701333 4.352l-0.298667-4.352v-170.666667a32 32 0 0 1 27.648-31.701333l4.352-0.298667h170.666667-170.666667z m-533.333333 0h170.666667a32 32 0 0 1 31.701333 27.648l0.298667 4.352v170.666667a32 32 0 0 1-63.701334 4.352L298.666667 864V725.333333H160a32 32 0 0 1-4.352-63.701333l4.352-0.298667h170.666667-170.666667z m170.666667-533.333333a32 32 0 0 1 31.701333 27.648l0.298667 4.352v170.666667a32 32 0 0 1-27.648 31.701333L330.666667 362.666667h-170.666667a32 32 0 0 1-4.352-63.701334L160 298.666667H298.666667V160A32 32 0 0 1 330.666667 128z m362.666666 0a32 32 0 0 1 31.701334 27.648L725.333333 160V298.666667h138.666667a32 32 0 0 1 4.352 63.701333l-4.352 0.298667h-170.666667a32 32 0 0 1-31.701333-27.648L661.333333 330.666667v-170.666667a32 32 0 0 1 32-32z" p-id="3438" fill="#e6e6e6"></path></svg>