<?xml version="1.0" standalone="no"?><!DOCTYPE svg PUBLIC "-//W3C//DTD SVG 1.1//EN" "http://www.w3.org/Graphics/SVG/1.1/DTD/svg11.dtd"><svg t="1624029977132" class="icon" viewBox="0 0 1024 1024" version="1.1" xmlns="http://www.w3.org/2000/svg" p-id="22688" xmlns:xlink="http://www.w3.org/1999/xlink" width="24" height="24"><defs><style type="text/css"></style></defs><path d="M512 42.666667C252.8 42.666667 42.666667 252.8 42.666667 512s210.133333 469.333333 469.333333 469.333333 469.333333-210.133333 469.333333-469.333333S771.2 42.666667 512 42.666667z m0 85.333333a384 384 0 1 1 0 768 384 384 0 0 1 0-768z" fill="#777777" p-id="22689"></path><path d="M364.458667 304.597333l4.010666 3.541334L512 451.626667l143.530667-143.488a42.666667 42.666667 0 0 1 63.872 56.32l-3.541334 4.010666L572.373333 512l143.488 143.530667a42.666667 42.666667 0 0 1-56.32 63.872l-4.010666-3.541334L512 572.373333l-143.530667 143.488a42.666667 42.666667 0 0 1-63.872-56.32l3.541334-4.010666L451.626667 512 308.138667 368.469333A42.666667 42.666667 0 0 1 360.106667 301.610667l4.352 2.986666z" fill="#777777" p-id="22690"></path></svg>