<?xml version="1.0" standalone="no"?><!DOCTYPE svg PUBLIC "-//W3C//DTD SVG 1.1//EN" "http://www.w3.org/Graphics/SVG/1.1/DTD/svg11.dtd"><svg t="1624028628462" class="icon" viewBox="0 0 1024 1024" version="1.1" xmlns="http://www.w3.org/2000/svg" p-id="17090" xmlns:xlink="http://www.w3.org/1999/xlink" width="24" height="24"><defs><style type="text/css"></style></defs><path d="M672 417.9968H144c-17.6896 0-32 14.3104-32 32V864c0 17.6896 14.3104 32 32 32H672c17.6896 0 32-14.3104 32-32V449.9968c0-17.6896-14.3104-32-32-32z m-44.0064 401.9968H188.0064V494.0032H627.968V819.968z m191.3088-491.4944a400.9984 400.9984 0 0 0-314.624-154.1888l-0.1792-64a7.808 7.808 0 0 0-12.5952-6.1184l-128 101.0176a7.8592 7.8592 0 0 0 0 12.288l128.1024 101.12c5.0944 3.9936 12.6976 0.384 12.5952-6.1184V248.6016a336.896 336.896 0 0 1 38.8096 2.5088c42.0864 5.1968 82.0992 18.176 118.9888 38.6816a327.3216 327.3216 0 0 1 98.4064 84.3008 325.7088 325.7088 0 0 1 64.5888 256.7168h74.9056a398.5152 398.5152 0 0 0-80.9984-302.3104z" p-id="17091" fill="#777777"></path></svg>