<?xml version="1.0" standalone="no"?><!DOCTYPE svg PUBLIC "-//W3C//DTD SVG 1.1//EN" "http://www.w3.org/Graphics/SVG/1.1/DTD/svg11.dtd"><svg t="1624082065490" class="icon" viewBox="0 0 1024 1024" version="1.1" xmlns="http://www.w3.org/2000/svg" p-id="4295" xmlns:xlink="http://www.w3.org/1999/xlink" width="16" height="16"><defs><style type="text/css"></style></defs><path d="M787.2 384c-70.4 0-128-57.6-128-128s57.6-128 128-128 128 57.6 128 128-57.6 128-128 128z m0-172.8c-25.6 0-44.8 19.2-44.8 44.8 0 25.6 19.2 44.8 44.8 44.8 25.6 0 44.8-19.2 44.8-44.8 0-25.6-19.2-44.8-44.8-44.8zM787.2 896c-70.4 0-128-57.6-128-128s57.6-128 128-128 128 57.6 128 128-57.6 128-128 128z m0-172.8c-25.6 0-44.8 19.2-44.8 44.8 0 25.6 19.2 44.8 44.8 44.8 25.6 0 44.8-19.2 44.8-44.8 0-25.6-19.2-44.8-44.8-44.8zM236.8 640c-70.4 0-128-57.6-128-128s57.6-128 128-128 128 57.6 128 128-57.6 128-128 128z m0-172.8c-25.6 0-44.8 19.2-44.8 44.8s19.2 44.8 44.8 44.8c25.6 0 44.8-19.2 44.8-44.8s-19.2-44.8-44.8-44.8z" p-id="4296" fill="#777777"></path><path d="M320 512c-12.8 0-32-12.8-38.4-25.6-6.4-19.2 0-44.8 19.2-57.6l384-172.8c19.2-6.4 44.8 0 57.6 19.2 6.4 19.2 0 44.8-19.2 57.6l-384 172.8c-6.4 6.4-12.8 6.4-19.2 6.4z" p-id="4297" fill="#777777"></path><path d="M704 774.4c-6.4 0-12.8 0-19.2-6.4l-384-172.8c-25.6-12.8-32-38.4-25.6-64 12.8-19.2 38.4-32 64-19.2l384 172.8c25.6 12.8 32 38.4 25.6 64-6.4 12.8-25.6 25.6-44.8 25.6z" p-id="4298" fill="#777777"></path></svg>